Coordinates
version=1
nRows=54
nColumns=12
inDegrees=yes

Units are S.I. units (second, meters, Newtons, ...)
Angles are in degrees

endheader
time	SC_y	SC_z	SC_x	AC_y	AC_z	AC_x	GH_y	GH_z	GH_yy	EL_x	PS_y
       0.0              -38.81          19.68          8.936          65.21         -12.99          12.07         -164.7          7.757          57.47          136.0          62.52
   0.03076              -38.81          19.68          8.942          65.21         -12.99          12.07         -164.7          7.765          57.45          136.0          62.53
   0.06153              -38.81          19.68          8.949          65.21         -12.99          12.07         -164.7          7.774          57.42          136.0          62.54
   0.09229              -38.82          19.68          8.955          65.21         -12.99          12.07         -164.7          7.784          57.39          136.0          62.55
    0.1231              -38.82          19.68          8.963           65.2         -12.99          12.07         -164.7          7.794          57.36          136.0          62.57
    0.1538              -38.82          19.68           8.97           65.2         -12.99          12.07         -164.7          7.805          57.33          136.0          62.58
    0.1846              -38.83          19.67          8.979           65.2         -12.99          12.07         -164.7          7.817          57.29          136.0           62.6
    0.2154              -38.83          19.67          8.987          65.19         -12.99          12.07         -164.7          7.829          57.25          136.0          62.62
    0.2461              -38.84          19.67          8.997          65.19         -12.99          12.07         -164.7          7.843          57.21          136.0          62.64
    0.2769              -38.84          19.67          9.007          65.19         -12.99          12.06         -164.7          7.857          57.17          136.0          62.66
    0.3076              -38.85          19.67          9.018          65.18         -12.98          12.06         -164.7          7.872          57.12          136.0          62.68
    0.3384              -38.85          19.67          9.029          65.18         -12.98          12.06         -164.7          7.889          57.07          136.0          62.71
    0.3692              -38.86          19.66          9.042          65.17         -12.98          12.06         -164.7          7.907          57.02          136.0          62.73
    0.3999              -38.86          19.66          9.056          65.17         -12.98          12.06         -164.7          7.926          56.96          136.0          62.76
    0.4307              -38.87          19.66           9.07          65.16         -12.98          12.06         -164.7          7.947           56.9          136.0          62.79
    0.4615              -38.88          19.66          9.086          65.15         -12.98          12.05         -164.7           7.97          56.83          136.0          62.82
    0.4922              -38.89          19.65          9.104          65.15         -12.98          12.05         -164.7          7.994          56.75          136.0          62.86
     0.523              -38.89          19.65          9.123          65.14         -12.98          12.05         -164.7          8.021          56.67          136.0          62.89
    0.5538               -38.9          19.65          9.143          65.13         -12.98          12.04         -164.7           8.05          56.58          135.9          62.94
    0.5845              -38.92          19.64          9.166          65.12         -12.98          12.04         -164.6          8.082          56.48          135.9          62.98
    0.6153              -38.93          19.64          9.191          65.11         -12.98          12.04         -164.6          8.118          56.38          135.9          63.03
    0.6461              -38.94          19.64          9.218           65.1         -12.98          12.03         -164.6          8.156          56.26          135.9          63.09
    0.6768              -38.95          19.63          9.248          65.09         -12.97          12.03         -164.6          8.199          56.13          135.9          63.15
    0.7076              -38.97          19.63          9.282          65.07         -12.97          12.03         -164.6          8.247          55.99          135.9          63.22
    0.7383              -38.99          19.62          9.319          65.06         -12.97          12.02         -164.6          8.299          55.83          135.9          63.29
    0.7691              -39.01          19.61           9.36          65.04         -12.97          12.01         -164.6          8.358          55.65          135.9          63.38
    0.7999              -39.03          19.61          9.407          65.02         -12.97          12.01         -164.6          8.424          55.45          135.9          63.47
    0.8306              -39.05           19.6          9.459           65.0         -12.97           12.0         -164.6          8.498          55.22          135.9          63.58
    0.8614              -39.08          19.59          9.518          64.97         -12.96          11.99         -164.6          8.582          54.97          135.9           63.7
    0.8922              -39.11          19.58          9.585          64.95         -12.96          11.98         -164.6          8.677          54.68          135.9          63.84
    0.9229              -39.15          19.57          9.662          64.92         -12.96          11.97         -164.6          8.785          54.35          135.9          63.99
    0.9537              -39.19          19.55           9.75          64.88         -12.95          11.96         -164.6           8.91          53.97          135.9          64.17
    0.9845              -39.24          19.54          9.851          64.84         -12.95          11.95         -164.6          9.054          53.54          135.9          64.38
     1.015              -39.29          19.52          9.969          64.79         -12.94          11.93         -164.6          9.221          53.03          135.9          64.62
     1.046              -39.35          19.49          10.11          64.73         -12.94          11.91         -164.5          9.416          52.44          135.9           64.9
     1.077              -39.43          19.47          10.27          64.66         -12.93          11.89         -164.5          9.647          51.74          135.9          65.23
     1.108              -39.52          19.44          10.46          64.59         -12.92          11.86         -164.5          9.921           50.9          135.9          65.62
     1.138              -39.63           19.4          10.69          64.49         -12.91          11.83         -164.5          10.25          49.91          135.9          66.09
     1.169              -39.76          19.36          10.98          64.37          -12.9          11.79         -164.4          10.65           48.7          135.9          66.66
       1.2              -39.92           19.3          11.32          64.23         -12.88          11.74         -164.4          11.13          47.23          135.9          67.36
     1.231              -40.12          19.23          11.74          64.06         -12.87          11.68         -164.4          11.73          45.41          135.9          68.22
     1.261              -40.36          19.15          12.27          63.84         -12.84          11.61         -164.3          12.48          43.14          135.8          69.29
     1.292              -40.67          19.04          12.93          63.57         -12.81          11.51         -164.2          13.42          40.29          135.8          70.64
     1.323              -41.07          18.91          13.77          63.22         -12.78           11.4         -164.1          14.61          36.66          135.8          72.36
     1.354              -41.57          18.74          14.85          62.78         -12.73          11.25         -164.0          16.14          32.01          135.8          74.55
     1.384              -42.22          18.52          16.24          62.21         -12.67          11.05         -163.9          18.11          26.05          135.7          77.37
     1.415              -43.04          18.23          18.01          61.48         -12.59           10.8         -163.7          20.62          18.43          135.7          80.97
     1.446              -44.08          17.88          20.24          60.56          -12.5          10.49         -163.4          23.77          8.857          135.6           85.5
     1.477              -45.35          17.45          22.95          59.44         -12.38          10.11         -163.1          27.61         -2.813          135.5          91.02
     1.507              -46.82          16.94          26.09          58.15         -12.24          9.672         -162.8          32.07         -16.34          135.4          97.41
     1.538              -48.41           16.4           29.5          56.74         -12.09          9.196         -162.4          36.89         -30.99          135.3          104.3
     1.569               -50.0          15.86           32.9          55.34         -11.94          8.719         -162.0          41.72         -45.64          135.2          111.3
       1.6              -51.47          15.36          36.05          54.05         -11.81          8.279         -161.6          46.17         -59.16          135.1          117.7
     1.631              -52.73          14.92          38.76          52.93         -11.69          7.899         -161.3          50.02         -70.83          135.0          123.2
